<svg width="1062" height="870" viewBox="0 0 1062 870" fill="none" xmlns="http://www.w3.org/2000/svg">
<g id="No Results">
<g id="circle">
<path id="Stroke 1" d="M35.5378 399.586V408.586" stroke="#D2D8DF" stroke-width="2.921" stroke-linecap="round"/>
<g id="Group 8">
<path id="Stroke 2" d="M15.323 404.461L22.6773 412.032" stroke="#D2D8DF" stroke-width="2.921" stroke-linecap="round"/>
<path id="Stroke 4" d="M6.72144 424.614H17.1203" stroke="#D2D8DF" stroke-width="2.921" stroke-linecap="round"/>
<path id="Stroke 6" d="M14.4792 445.125L21.8335 437.555" stroke="#D2D8DF" stroke-width="2.921" stroke-linecap="round"/>
</g>
<path id="Stroke 9" d="M36 453V444" stroke="#D2D8DF" stroke-width="2.921" stroke-linecap="round"/>
<path id="Stroke 10" d="M54 447L48 441" stroke="#D2D8DF" stroke-width="2.921" stroke-linecap="round"/>
<path id="Stroke 11" d="M62.5378 426.586H53.5378" stroke="#D2D8DF" stroke-width="2.921" stroke-linecap="round"/>
<path id="Stroke 12" d="M56.5378 405.586L50.5378 411.586" stroke="#D2D8DF" stroke-width="2.921" stroke-linecap="round"/>
<path id="Stroke 13" d="M518.538 6.58594V12.5859" stroke="#D2D8DF" stroke-width="2.921" stroke-linecap="round"/>
<path id="Stroke 15" d="M500.538 24.5859H506.538" stroke="#D2D8DF" stroke-width="2.921" stroke-linecap="round"/>
<path id="Stroke 16" d="M518.538 42.5859V36.5859" stroke="#D2D8DF" stroke-width="2.921" stroke-linecap="round"/>
<path id="Stroke 17" d="M533.538 24.5859H527.538" stroke="#D2D8DF" stroke-width="2.921" stroke-linecap="round"/>
<path id="Stroke 18" d="M170.538 258.586V267.586" stroke="#D2D8DF" stroke-width="2.921" stroke-linecap="round"/>
<path id="Stroke 19" d="M143.538 285.586H152.538" stroke="#D2D8DF" stroke-width="2.921" stroke-linecap="round"/>
<path id="Stroke 20" d="M170.538 309.586V300.586" stroke="#D2D8DF" stroke-width="2.921" stroke-linecap="round"/>
<path id="Stroke 21" d="M194.538 285.586H185.538" stroke="#D2D8DF" stroke-width="2.921" stroke-linecap="round"/>
<g id="Group 42">
<path id="Stroke 22" d="M816.299 585.703C823.469 585.703 829.283 591.519 829.283 598.69C829.283 605.864 823.469 611.678 816.299 611.678C809.13 611.678 803.315 605.864 803.315 598.69" stroke="#D2D8DF" stroke-width="2.921" stroke-linecap="round"/>
<path id="Fill 26" fill-rule="evenodd" clip-rule="evenodd" d="M875.719 467.876C883.429 465.471 895.246 456.043 897.982 445.898C900.462 454.866 910.861 465.471 920.244 466.274C909.682 470.013 899.584 481.123 897.982 489.851C896.892 480.955 882.925 469.173 875.719 467.876Z" fill="#EBECEE"/>
<path id="Fill 28" fill-rule="evenodd" clip-rule="evenodd" d="M84.3523 581.702C88.2083 580.5 94.1145 575.787 95.4821 570.715C96.7225 575.196 101.921 580.5 106.612 580.902C101.332 582.77 96.2844 588.326 95.4821 592.69C94.9371 588.242 87.9536 582.349 84.3523 581.702Z" fill="#EBECEE"/>
<path id="Fill 30" fill-rule="evenodd" clip-rule="evenodd" d="M155.91 164.377C155.91 169.941 151.402 174.447 145.842 174.447C140.28 174.447 135.774 169.941 135.774 164.377C135.774 158.816 140.28 154.307 145.842 154.307C151.402 154.307 155.91 158.816 155.91 164.377Z" fill="#D1D8DF"/>
<path id="Fill 32" fill-rule="evenodd" clip-rule="evenodd" d="M828.195 191.418C828.195 200.714 820.659 208.249 811.368 208.249C802.071 208.249 794.538 200.714 794.538 191.418C794.538 182.122 802.071 174.586 811.368 174.586C820.659 174.586 828.195 182.122 828.195 191.418Z" fill="#EBECEE"/>
<path id="Fill 34" fill-rule="evenodd" clip-rule="evenodd" d="M1061.28 145.815C1061.28 153.19 1055.3 159.166 1047.93 159.166C1040.56 159.166 1034.58 153.19 1034.58 145.815C1034.58 138.439 1040.56 132.463 1047.93 132.463C1055.3 132.463 1061.28 138.439 1061.28 145.815Z" fill="#EBECEE"/>
<path id="Stroke 36" fill-rule="evenodd" clip-rule="evenodd" d="M344.068 769.389C344.068 774.038 340.301 777.806 335.653 777.806C331.008 777.806 327.241 774.038 327.241 769.389C327.241 764.739 331.008 760.972 335.653 760.972C340.301 760.972 344.068 764.739 344.068 769.389Z" stroke="#D2D8DF" stroke-width="2.921" stroke-linecap="round"/>
<path id="Stroke 38" fill-rule="evenodd" clip-rule="evenodd" d="M339.062 99.6808C339.062 105.245 334.554 109.751 328.994 109.751C323.434 109.751 318.927 105.245 318.927 99.6808C318.927 94.1195 323.434 89.6104 328.994 89.6104C334.554 89.6104 339.062 94.1195 339.062 99.6808Z" stroke="#D2D8DF" stroke-width="2.921" stroke-linecap="round"/>
<path id="Stroke 40" fill-rule="evenodd" clip-rule="evenodd" d="M595.87 862.594C589.437 865.043 582.237 861.81 579.79 855.377C577.342 848.942 580.571 841.738 587.007 839.292C593.438 836.844 600.638 840.074 603.086 846.509C605.536 852.944 602.304 860.146 595.87 862.594Z" stroke="#D2D8DF" stroke-width="2.921" stroke-linecap="round"/>
</g>
</g>
<g id="search">
<path id="Fill 1" fill-rule="evenodd" clip-rule="evenodd" d="M683.522 630.208L505.815 597.522C493.307 595.221 484.958 583.069 487.266 570.519L533.879 317.101C536.187 304.551 548.314 296.17 560.821 298.471L738.528 331.158C751.041 333.459 759.392 345.606 757.083 358.156L710.471 611.575C708.162 624.125 696.035 632.51 683.522 630.208Z" fill="#E0E2EE"/>
<path id="Fill 3" fill-rule="evenodd" clip-rule="evenodd" d="M632.061 592.681L453.094 567.796C440.498 566.044 431.625 554.269 433.382 541.63L468.87 286.416C470.627 273.777 482.375 264.874 494.972 266.626L673.938 291.511C686.54 293.263 695.413 305.033 693.656 317.672L658.169 572.886C656.411 585.525 644.662 594.433 632.061 592.681Z" fill="#E8EBF2"/>
<path id="Fill 5" fill-rule="evenodd" clip-rule="evenodd" d="M597.288 560.01L416.304 565.329C403.566 565.703 392.833 555.617 392.46 542.914L384.922 286.422C384.548 273.72 394.67 263.026 407.409 262.651L588.392 257.332C601.136 256.958 611.868 267.039 612.242 279.741L619.78 536.234C620.153 548.936 610.031 559.635 597.288 560.01Z" fill="#D8DBEA"/>
<g id="Group 93">
<path id="Fill 8" fill-rule="evenodd" clip-rule="evenodd" d="M562.722 539.233L384.412 570.677C371.861 572.891 359.782 564.463 357.575 551.948L313.012 299.244C310.806 286.73 319.274 274.684 331.824 272.47L510.134 241.026C522.69 238.812 534.768 247.235 536.975 259.75L581.538 512.453C583.745 524.968 575.277 537.019 562.722 539.233Z" fill="#F1F2F7"/>
<path id="Fill 11" fill-rule="evenodd" clip-rule="evenodd" d="M498.01 322.549L366.306 345.774C362.545 346.437 358.949 344.051 358.318 340.473C357.686 336.89 360.249 333.418 364.01 332.755L495.714 309.529C499.475 308.866 503.07 311.252 503.702 314.835C504.333 318.414 501.771 321.886 498.01 322.549Z" fill="#E0E2EE"/>
<path id="Fill 13" fill-rule="evenodd" clip-rule="evenodd" d="M504.899 361.607L373.196 384.833C369.434 385.496 365.839 383.11 365.208 379.532C364.576 375.949 367.139 372.477 370.9 371.813L502.604 348.588C506.365 347.925 509.96 350.311 510.592 353.894C511.223 357.472 508.661 360.944 504.899 361.607Z" fill="#E0E2EE"/>
<path id="Fill 15" fill-rule="evenodd" clip-rule="evenodd" d="M511.785 400.666L380.081 423.891C376.32 424.555 372.725 422.169 372.094 418.59C371.463 415.012 374.024 411.535 377.785 410.872L509.489 387.647C513.25 386.983 516.846 389.374 517.477 392.953C518.108 396.531 515.546 400.003 511.785 400.666Z" fill="#E0E2EE"/>
<path id="Fill 17" fill-rule="evenodd" clip-rule="evenodd" d="M518.675 439.725L386.971 462.95C383.21 463.613 379.615 461.227 378.984 457.649C378.352 454.066 380.914 450.594 384.675 449.931L516.379 426.705C520.14 426.042 523.735 428.428 524.367 432.011C524.998 435.589 522.436 439.061 518.675 439.725Z" fill="#E0E2EE"/>
<path id="Fill 19" fill-rule="evenodd" clip-rule="evenodd" d="M462.604 489.885L393.886 502.003C390.109 502.67 386.5 500.286 385.869 496.707C385.237 493.124 387.813 489.65 391.59 488.984L460.308 476.866C464.085 476.2 467.694 478.584 468.326 482.167C468.957 485.745 466.381 489.219 462.604 489.885Z" fill="#E0E2EE"/>
</g>
</g>
</g>
</svg>
