<svg width="15" height="16" viewBox="0 0 15 16" fill="none" xmlns="http://www.w3.org/2000/svg">
<path fill-rule="evenodd" clip-rule="evenodd" d="M14.6379 0.862273C14.819 1.04336 14.8804 1.31219 14.7957 1.55391L10.1291 14.8872C10.0388 15.1452 9.80014 15.322 9.52702 15.3331C9.2539 15.3443 9.00165 15.1876 8.89063 14.9378L6.3281 9.17208L0.562415 6.60955C0.312628 6.49853 0.155919 6.24629 0.167061 5.97317C0.178204 5.70005 0.35494 5.46141 0.61294 5.37111L13.9463 0.704439C14.188 0.619835 14.4568 0.681181 14.6379 0.862273ZM7.62834 8.81465L9.4261 12.8596L12.5722 3.8708L7.62834 8.81465ZM11.6294 2.92799L2.64056 6.07408L6.68553 7.87185L11.6294 2.92799Z" fill="white"/>
</svg>
